# xmcd CD database file
#
# Track frame offsets:
#	150
#	16300
#	35780
#	54422
#	71512
#	83607
#	102542
#	113750
#	130155
#	156362
#	177240
#	193955
#
# Disc length: 2802 seconds
#
# Revision: 4
# Processed by: cddbd v1.5.2PL0 Copyright (c) Steve Scherf et al.
# Submitted via: CDex 1.51
#
DISCID=a30af00c
DTITLE=Various Artist - Big Blues - Blues Music for Kids
DYEAR=1996
DGENRE=Blues
TTITLE0=Flying Lesson - Michelle Shocked
TTITLE1=Zip-A-Dee-Doo-Dah - Fabulous Thunderbirds
TTITLE2=Skip to My Blues - Buckwheat Zydeco
TTITLE3=Candy Store Blues - Maria Muldaur
TTITLE4=Pancake Man - Catfish Hodge
TTITLE5=Late for School Blues - Rita Coolidge
TTITLE6=Pick a Bale O' Cotton - Sonny Terry
TTITLE7=Funky Bluesy ABC's - Taj Mahal
TTITLE8=The Rainy Day Blues - B.B King
TTITLE9=Waggy Tailed Dog - Maria Muldaur
TTITLE10=Fishin' Blues - Taj Mahal
TTITLE11=There Wouldn't Be a Me - Jimmy Witherspoon
EXTD=YEAR: 1996
EXTT0=
EXTT1=
EXTT2=
EXTT3=
EXTT4=
EXTT5=
EXTT6=
EXTT7=
EXTT8=
EXTT9=
EXTT10=
EXTT11=
PLAYORDER=
